<svg fill="none" height="32" viewBox="0 0 287 32" width="287" xmlns="http://www.w3.org/2000/svg"><path d="m94.3539 24.1951c-2.2584.1772-4.8932.1772-7.1516.3544-6.3989.3545-12.7977.5317-19.1966.8861-3.764.1773-7.1516.3545-10.9156.5317-8.2809.7089-16.1854 2.1267-24.8426 2.6583-8.2809.5317-11.6685-.3544-18.4438 1.9495-1.882.7089-4.89312.8861-6.39873.1772.7528-1.4178-4.89326-7.7978-4.14045-8.1522 4.89323-2.6583-.00007-3.3672-3.011294-4.6078-.752806-.3544.376449-2.1266.752854-2.1266 26.34822-7.62057 59.47162-7.0889 88.83102-12.05111 2.6349-.8861 8.2809-.35445 12.4209-.53167 10.163-.70888 20.326-.53166 30.489-2.12665 7.152-1.0633341 15.056-1.595002 22.208-.708893 9.41 1.240553 20.326 1.594993 30.488 1.417763 4.894-.17722 10.916.53167 14.68-.35443 4.893-1.240558 7.152-1.77222 12.421-.17722 3.388 1.06333 9.41.53165 14.304.53165 26.724-1.7722149 25.595 5.13944 46.674 4.96222 2.634-.35444 7.904 1.94944 10.915 3.19004 3.388 1.4177 4.141 2.8355-2.258 3.3672-14.303 1.4177-3.011 8.6838-22.584 5.8483-9.41-1.4178-21.832.7089-31.618 1.0633-12.421.3545-24.843.5317-37.264 0-2.258 0-4.14-.1772-6.399 0-8.657.5317-14.303 2.1267-23.337 1.2406-6.022-.5317-15.432 1.2405-20.325-.5317.752.3544-12.045 1.2406-13.551 1.2406-4.893-.1773-8.657 0-13.551.5316-6.398.5317-12.797 1.0634-19.1961 1.4178z" fill="#E7D000"/></svg>